<?xml version="1.0" encoding="iso-8859-1"?>
<!-- Generator: Adobe Illustrator 19.0.0, SVG Export Plug-In . SVG Version: 6.00 Build 0)  -->
<svg version="1.1" id="Layer_1" xmlns="http://www.w3.org/2000/svg" xmlns:xlink="http://www.w3.org/1999/xlink" x="0px" y="0px"
	 viewBox="0 0 502.519 502.519" style="enable-background:new 0 0 502.519 502.519;" xml:space="preserve">
<g transform="translate(1 1)">
	<g>
		<g>
			<path d="M316.63,425.667H183.889c-5.689,0-9.482,3.793-9.482,9.482c0,5.689,3.793,9.481,9.482,9.481H316.63
				c5.689,0,9.482-3.793,9.482-9.481C326.111,429.459,322.319,425.667,316.63,425.667z"/>
			<path d="M316.63,387.741H183.889c-5.689,0-9.482,3.793-9.482,9.481c0,5.689,3.793,9.482,9.482,9.482H316.63
				c5.689,0,9.482-3.793,9.482-9.482C326.111,391.533,322.319,387.741,316.63,387.741z"/>
			<path d="M352.308,132.415c-4.202-40.565-14.967-83.024-41.368-128.674C309.044,0.896,306.2-1,302.407-1H199.059
				c-3.793,0-6.637,1.896-8.533,4.741c-25.821,43.572-36.989,86.838-41.649,128.242c-32.047,21.021-50.321,56.404-50.321,93.625
				V393.43c0,59.733,48.356,108.089,108.089,108.089h87.23c59.733,0,108.089-48.356,108.089-107.141v-168.77
				C401.963,187.72,383.944,153.442,352.308,132.415z M300.183,313.051c-0.105,0.057-0.208,0.117-0.313,0.173
				c-0.781,0.421-1.576,0.82-2.375,1.21c-0.525,0.255-1.055,0.5-1.587,0.742c-0.246,0.112-0.492,0.223-0.74,0.332
				c-4.822,2.125-9.92,3.712-15.209,4.694c-0.332,0.061-0.665,0.12-0.999,0.177c-0.571,0.097-1.142,0.193-1.717,0.276
				c-0.862,0.124-1.729,0.235-2.602,0.327c-0.358,0.038-0.718,0.064-1.077,0.096c-0.711,0.063-1.424,0.119-2.141,0.161
				c-0.331,0.02-0.662,0.038-0.994,0.053c-1.029,0.045-2.063,0.078-3.104,0.078h-34.133c-0.976,0-1.944-0.033-2.909-0.073
				c-0.527-0.024-1.053-0.051-1.577-0.087c-0.209-0.013-0.417-0.032-0.626-0.047c-23.605-1.864-44.953-16.487-55.569-37.719
				c11.378-22.756,35.081-37.926,61.63-37.926h34.133c25.458,0,49.036,15.006,60.486,37.551
				C322.583,295.812,312.57,306.294,300.183,313.051z M203.8,17.963v0.948h18.055c0.4,5.157,4.076,8.533,9.442,8.533
				s9.041-3.376,9.441-8.533h19.043c0.4,5.157,4.075,8.533,9.441,8.533s9.041-3.376,9.442-8.533h17.107
				c14.97,25.858,24.446,50.739,30.4,74.906c-0.02,0-0.039-0.003-0.059-0.003c-5.689,0-9.482,4.741-9.482,9.482
				c0,5.689,3.793,9.481,9.482,9.481c1.447,0,2.769-0.248,3.939-0.707c2.732,15.159,4.241,30.055,5.033,44.757
				c-1.205-3.771-4.497-6.124-8.972-6.124c-5.689,0-9.482,4.741-9.482,9.481c0,5.689,3.793,9.482,9.482,9.482
				c4.874,0,8.347-2.789,9.245-7.163c0.093,2.216,0.171,4.428,0.237,6.636v47.934v0.948v26.548v8.533c0,2.01-0.103,3.993-0.27,5.957
				c-16.456-20.24-41.107-32.505-67.996-32.505h-34.133c-26.694,0-51.73,12.086-68.029,32.063c-0.143-1.82-0.237-3.656-0.237-5.515
				v-8.533v-21.807v-5.689v-39.975c0.114-4.503,0.276-9.037,0.496-13.597c1.194,3.795,4.494,6.165,8.986,6.165
				c5.689,0,9.482-3.793,9.482-9.482s-3.793-9.481-9.482-9.481c-4.061,0-7.147,2.42-8.585,5.527
				c0.9-14.444,2.454-29.147,5.04-44.024c1.072,0.367,2.257,0.571,3.545,0.571c5.689,0,9.482-3.793,9.482-9.481
				c0-5.627-3.714-9.392-9.3-9.474C180.423,68.796,189.567,43.379,203.8,17.963z M383,394.378c0,49.304-39.822,89.126-89.126,89.126
				h-87.23c-49.304,0-89.126-39.822-89.126-89.126v-168.77c0-25.6,10.43-50.252,28.444-67.319c0,0,0,12.853,0,18.867
				c-0.373,15.608-0.211,30.843,0,45.607c0,9.491,0,18.235,0,21.807c0,1.398,0,8.533,0,8.533c0,3.778,0.237,7.498,0.698,11.146
				c0.184,1.459,0.404,2.907,0.659,4.342c0.127,0.718,0.263,1.432,0.408,2.144c1.014,4.984,2.449,9.81,4.268,14.44
				c0.11,0.759,0.304,1.462,0.604,2.061c2.52,5.711,5.585,11.057,9.102,16.002c0.144,0.205,0.286,0.411,0.432,0.615
				c0.117,0.161,0.234,0.323,0.352,0.483c15.162,20.94,39.423,34.806,67.104,35.918c0.211,0.009,0.422,0.017,0.633,0.024
				c0.986,0.033,1.975,0.055,2.97,0.055h34.133c0.995,0,1.983-0.022,2.97-0.055c0.211-0.007,0.422-0.015,0.633-0.024
				c27.682-1.112,51.944-14.979,67.106-35.92c0.117-0.159,0.233-0.319,0.349-0.479c0.147-0.206,0.291-0.414,0.436-0.621
				c3.516-4.943,6.58-10.288,9.099-15.998c0.183-0.549,0.32-1.097,0.432-1.639c4.002-10.032,6.205-20.994,6.205-32.494v-8.533
				c0-8.533,0-18.015,0-26.548c0.234-16.409,0.468-32.992,0-49.849v-9.885C372.57,176.304,383,200.007,383,225.607V394.378z"/>
			<path d="M174.407,226.556c5.689,0,9.482-3.793,9.482-9.481s-3.793-9.482-9.482-9.482c-5.689,0-9.481,4.741-9.481,9.482
				C164.926,222.763,168.719,226.556,174.407,226.556z"/>
			<path d="M212.333,207.593c-5.689,0-9.482,4.741-9.482,9.482c0,5.689,3.793,9.481,9.482,9.481c5.689,0,9.481-3.793,9.481-9.481
				S218.022,207.593,212.333,207.593z"/>
			<path d="M288.185,207.593c-5.689,0-9.481,4.741-9.481,9.482c0,5.689,3.793,9.481,9.481,9.481c5.689,0,9.482-3.793,9.482-9.481
				S293.874,207.593,288.185,207.593z"/>
			<path d="M326.111,207.593c-5.689,0-9.482,4.741-9.482,9.482c0,5.689,3.793,9.481,9.482,9.481s9.481-3.793,9.481-9.481
				S331.8,207.593,326.111,207.593z"/>
			<path d="M250.259,207.593c-5.689,0-9.482,4.741-9.482,9.482c0,5.689,3.793,9.481,9.482,9.481s9.481-3.793,9.481-9.481
				S255.948,207.593,250.259,207.593z"/>
			<path d="M193.37,179.148c-5.689,0-9.481,4.741-9.481,9.482c0,5.689,3.793,9.482,9.481,9.482c5.689,0,9.482-3.793,9.482-9.482
				S199.059,179.148,193.37,179.148z"/>
			<path d="M212.333,169.667c5.689,0,9.481-3.793,9.481-9.482s-3.793-9.481-9.481-9.481c-5.689,0-9.482,4.741-9.482,9.481
				C202.852,165.874,206.644,169.667,212.333,169.667z"/>
			<path d="M288.185,169.667c5.689,0,9.482-3.793,9.482-9.482s-3.793-9.481-9.482-9.481c-5.689,0-9.481,4.741-9.481,9.481
				C278.704,165.874,282.496,169.667,288.185,169.667z"/>
			<path d="M250.259,169.667c5.689,0,9.481-3.793,9.481-9.482s-3.793-9.481-9.481-9.481s-9.482,4.741-9.482,9.481
				C240.778,165.874,244.57,169.667,250.259,169.667z"/>
			<path d="M231.296,179.148c-5.689,0-9.482,4.741-9.482,9.482c0,5.689,3.793,9.482,9.482,9.482s9.481-3.793,9.481-9.482
				S236.985,179.148,231.296,179.148z"/>
			<path d="M269.222,179.148c-5.689,0-9.481,4.741-9.481,9.482c0,5.689,3.793,9.482,9.481,9.482s9.482-3.793,9.482-9.482
				S274.911,179.148,269.222,179.148z"/>
			<path d="M307.148,179.148c-5.689,0-9.482,4.741-9.482,9.482c0,5.689,3.793,9.482,9.482,9.482c5.689,0,9.481-3.793,9.481-9.482
				S312.837,179.148,307.148,179.148z"/>
			<path d="M193.37,141.222c5.689,0,9.482-3.793,9.482-9.482c0-5.689-3.793-9.481-9.482-9.481c-5.689,0-9.481,4.741-9.481,9.481
				C183.889,137.43,187.682,141.222,193.37,141.222z"/>
			<path d="M212.333,93.815c-5.689,0-9.482,4.741-9.482,9.482c0,5.689,3.793,9.481,9.482,9.481c5.689,0,9.481-3.793,9.481-9.481
				C221.815,97.607,218.022,93.815,212.333,93.815z"/>
			<path d="M288.185,112.778c5.689,0,9.482-3.793,9.482-9.481c0-5.689-3.793-9.482-9.482-9.482c-5.689,0-9.481,4.741-9.481,9.482
				C278.704,108.985,282.496,112.778,288.185,112.778z"/>
			<path d="M250.259,93.815c-5.689,0-9.482,4.741-9.482,9.482c0,5.689,3.793,9.481,9.482,9.481s9.481-3.793,9.481-9.481
				C259.741,97.607,255.948,93.815,250.259,93.815z"/>
			<path d="M231.296,122.259c-5.689,0-9.482,4.741-9.482,9.481c0,5.689,3.793,9.482,9.482,9.482s9.481-3.793,9.481-9.482
				C240.778,126.052,236.985,122.259,231.296,122.259z"/>
			<path d="M269.222,122.259c-5.689,0-9.481,4.741-9.481,9.481c0,5.689,3.793,9.482,9.481,9.482s9.482-3.793,9.482-9.482
				C278.704,126.052,274.911,122.259,269.222,122.259z"/>
			<path d="M307.148,122.259c-5.689,0-9.482,4.741-9.482,9.481c0,5.689,3.793,9.482,9.482,9.482c5.689,0,9.481-3.793,9.481-9.482
				C316.63,126.052,312.837,122.259,307.148,122.259z"/>
			<path d="M193.37,84.333c5.689,0,9.482-3.793,9.482-9.481s-3.793-9.482-9.482-9.482c-5.689,0-9.481,4.741-9.481,9.482
				C183.889,80.541,187.682,84.333,193.37,84.333z"/>
			<path d="M212.333,55.889c5.689,0,9.481-3.793,9.481-9.482s-3.793-9.481-9.481-9.481c-5.689,0-9.482,4.741-9.482,9.481
				C202.852,52.096,206.644,55.889,212.333,55.889z"/>
			<path d="M288.185,55.889c5.689,0,9.482-3.793,9.482-9.482s-3.793-9.481-9.482-9.481c-5.689,0-9.481,4.741-9.481,9.481
				C278.704,52.096,282.496,55.889,288.185,55.889z"/>
			<path d="M250.259,55.889c5.689,0,9.481-3.793,9.481-9.482s-3.793-9.481-9.481-9.481s-9.482,4.741-9.482,9.481
				C240.778,52.096,244.57,55.889,250.259,55.889z"/>
			<path d="M231.296,84.333c5.689,0,9.481-3.793,9.481-9.481s-3.793-9.482-9.481-9.482s-9.482,4.741-9.482,9.482
				C221.815,80.541,225.607,84.333,231.296,84.333z"/>
			<path d="M269.222,84.333c5.689,0,9.482-3.793,9.482-9.481s-3.793-9.482-9.482-9.482s-9.481,4.741-9.481,9.482
				C259.741,80.541,263.533,84.333,269.222,84.333z"/>
			<path d="M307.148,84.333c5.689,0,9.481-3.793,9.481-9.481s-3.793-9.482-9.481-9.482c-5.689,0-9.482,4.741-9.482,9.482
				C297.667,80.541,301.459,84.333,307.148,84.333z"/>
		</g>
	</g>
</g>
<g>
</g>
<g>
</g>
<g>
</g>
<g>
</g>
<g>
</g>
<g>
</g>
<g>
</g>
<g>
</g>
<g>
</g>
<g>
</g>
<g>
</g>
<g>
</g>
<g>
</g>
<g>
</g>
<g>
</g>
</svg>
